<?xml version="1.0" encoding="UTF-8" standalone="no"?>
<svg
   xmlns:dc="http://purl.org/dc/elements/1.1/"
   xmlns:cc="http://creativecommons.org/ns#"
   xmlns:rdf="http://www.w3.org/1999/02/22-rdf-syntax-ns#"
   xmlns:svg="http://www.w3.org/2000/svg"
   xmlns="http://www.w3.org/2000/svg"
   xmlns:sodipodi="http://sodipodi.sourceforge.net/DTD/sodipodi-0.dtd"
   xmlns:inkscape="http://www.inkscape.org/namespaces/inkscape"
   version="1.1"
   id="svg5669"
   viewBox="0 0 1079.9996 356.87997"
   height="356.88"
   width="1080"
   inkscape:version="0.91 r13725"
   sodipodi:docname="logo.svg"
   inkscape:export-filename="/home/karaketir16/Desktop/final5.png"
   inkscape:export-xdpi="90"
   inkscape:export-ydpi="90">
  <sodipodi:namedview
     pagecolor="#ffffff"
     bordercolor="#666666"
     borderopacity="1"
     objecttolerance="10"
     gridtolerance="10"
     guidetolerance="10"
     inkscape:pageopacity="0"
     inkscape:pageshadow="2"
     inkscape:window-width="1366"
     inkscape:window-height="711"
     id="namedview33"
     showgrid="false"
     inkscape:showpageshadow="false"
     showborder="false"
     inkscape:zoom="22.627417"
     inkscape:cx="954.06817"
     inkscape:cy="10.340047"
     inkscape:window-x="0"
     inkscape:window-y="0"
     inkscape:window-maximized="1"
     inkscape:current-layer="g5606" />
  <defs
     id="defs5671" />
  <metadata
     id="metadata5674">
    <rdf:RDF>
      <cc:Work
         rdf:about="">
        <dc:format>image/svg+xml</dc:format>
        <dc:type
           rdf:resource="http://purl.org/dc/dcmitype/StillImage" />
        <dc:title></dc:title>
      </cc:Work>
    </rdf:RDF>
  </metadata>
  <g
     id="g3390"
     transform="matrix(2.6999997,0,0,3.2443606,1.4429088e-4,3.1056961e-4)">
    <rect
       ry="0"
       y="-6.55651e-06"
       x="-8.4877007e-05"
       height="110"
       width="400"
       id="rect3385"
       style="fill:#00ffff" />
    <g
       id="layer1"
       transform="translate(0,-942.36213)">
      <g
         transform="matrix(1.4170068,0,0,1.4051128,-327.22149,258.25433)"
         id="g5606">
        <g
           style="font-style:normal;font-weight:normal;font-size:40px;line-height:125%;font-family:sans-serif;text-align:center;letter-spacing:0px;word-spacing:0px;text-anchor:middle;fill:#000000;fill-opacity:1;stroke:none;stroke-width:1px;stroke-linecap:butt;stroke-linejoin:miter;stroke-opacity:1"
           id="text3677"
           transform="translate(52.503906,-77.729176)">
          <path
             d="m 210.58844,576.15259 -4.16016,14.92187 8.32032,0 -4.16016,-14.92187 z m -2.38281,-3.47656 4.78515,0 8.92578,29.16015 -4.08203,0 -2.14843,-7.59765 -10.21485,0 -2.10937,7.59765 -4.08203,0 8.92578,-29.16015 z"
             style="fill:#000000"
             id="path5463"
             inkscape:connector-curvature="0" />
          <path
             d="m 237.46344,588.06665 q 1.52344,0.39063 2.59766,1.48438 1.07421,1.07421 2.67578,4.3164 l 3.96484,7.96875 -4.23828,0 -3.47656,-7.36328 q -1.50391,-3.14453 -2.71485,-4.04297 -1.1914,-0.91797 -3.125,-0.91797 l -3.76953,0 0,12.32422 -3.96484,0 0,-29.16015 8.125,0 q 4.80469,0 7.36328,2.16796 2.55859,2.16797 2.55859,6.26954 0,2.89062 -1.58203,4.72656 -1.5625,1.8164 -4.41406,2.22656 z m -8.08594,-12.14844 0,10.35157 4.31641,0 q 2.83203,0 4.21875,-1.26954 1.38672,-1.26953 1.38672,-3.88671 0,-2.51954 -1.48438,-3.84766 -1.46484,-1.34766 -4.27734,-1.34766 l -4.16016,0 z"
             style="fill:#000000"
             id="path5465"
             inkscape:connector-curvature="0" />
          <path
             d="m 247.60016,572.67603 22.24609,0 0,3.32031 -9.12109,0 0,25.83984 -3.96485,0 0,-25.83984 -9.16015,0 0,-3.32031 z"
             style="fill:#000000"
             id="path5467"
             inkscape:connector-curvature="0" />
          <path
             d="m 274.67047,572.67603 16.19141,0 0,3.32031 -6.11328,0 0,22.51953 6.11328,0 0,3.32031 -16.19141,0 0,-3.32031 6.11328,0 0,-22.51953 -6.11328,0 0,-3.32031 z"
             style="fill:#000000"
             id="path5469"
             inkscape:connector-curvature="0" />
          <path
             d="m 299.35797,572.67603 17.16797,0 0,3.32031 -13.20313,0 0,8.59375 11.97266,0 0,3.32031 -11.97266,0 0,13.92578 -3.96484,0 0,-29.16015 z"
             style="fill:#000000"
             id="path5471"
             inkscape:connector-curvature="0" />
          <path
             d="m 322.79547,572.67603 16.19141,0 0,3.32031 -6.11328,0 0,22.51953 6.11328,0 0,3.32031 -16.19141,0 0,-3.32031 6.11328,0 0,-22.51953 -6.11328,0 0,-3.32031 z"
             style="fill:#000000"
             id="path5473"
             inkscape:connector-curvature="0" />
          <path
             d="m 363.88922,600.80103 q -1.50391,0.80078 -3.08594,1.1914 -1.58203,0.41016 -3.35937,0.41016 -5.60547,0 -8.71094,-3.96485 -3.08594,-3.96484 -3.08594,-11.15234 0,-7.14844 3.10547,-11.13281 3.125,-4.00391 8.69141,-4.00391 1.77734,0 3.35937,0.41016 1.58203,0.39062 3.08594,1.1914 l 0,4.04297 q -1.44531,-1.1914 -3.10547,-1.8164 -1.66015,-0.625 -3.33984,-0.625 -3.84766,0 -5.76172,2.96875 -1.91406,2.96875 -1.91406,8.96484 0,5.97656 1.91406,8.94531 1.91406,2.96875 5.76172,2.96875 1.71875,0 3.35937,-0.625 1.66016,-0.625 3.08594,-1.8164 l 0,4.04297 z"
             style="fill:#000000"
             id="path5475"
             inkscape:connector-curvature="0" />
          <path
             d="m 370.92047,572.67603 16.19141,0 0,3.32031 -6.11328,0 0,22.51953 6.11328,0 0,3.32031 -16.19141,0 0,-3.32031 6.11328,0 0,-22.51953 -6.11328,0 0,-3.32031 z"
             style="fill:#000000"
             id="path5477"
             inkscape:connector-curvature="0" />
          <path
             d="m 403.08844,576.15259 -4.16016,14.92187 8.32032,0 -4.16016,-14.92187 z m -2.38281,-3.47656 4.78515,0 8.92578,29.16015 -4.08203,0 -2.14843,-7.59765 -10.21485,0 -2.10937,7.59765 -4.08203,0 8.92578,-29.16015 z"
             style="fill:#000000"
             id="path5479"
             inkscape:connector-curvature="0" />
          <path
             d="m 419.31891,572.67603 3.96484,0 0,25.83984 14.08203,0 0,3.32031 -18.04687,0 0,-29.16015 z"
             style="fill:#000000"
             id="path5481"
             inkscape:connector-curvature="0" />
        </g>
        <g
           style="font-style:normal;font-weight:normal;font-size:40px;line-height:125%;font-family:sans-serif;text-align:center;letter-spacing:0px;word-spacing:0px;text-anchor:middle;fill:#000000;fill-opacity:1;stroke:none;stroke-width:1px;stroke-linecap:butt;stroke-linejoin:miter;stroke-opacity:1"
           id="text3681"
           transform="translate(52.503906,-77.729176)">
          <path
             d="m 178.42047,605.94531 16.19141,0 0,3.32031 -6.11328,0 0,22.51954 6.11328,0 0,3.32031 -16.19141,0 0,-3.32031 6.11328,0 0,-22.51954 -6.11328,0 0,-3.32031 z"
             style="font-style:normal;font-variant:normal;font-weight:normal;font-stretch:normal;font-family:monospace;-inkscape-font-specification:monospace;fill:#000000"
             id="path5484"
             inkscape:connector-curvature="0" />
          <path
             d="m 201.27203,605.94531 5,0 9.84375,24.00391 0,-24.00391 3.8086,0 0,29.16016 -5,0 -9.84375,-24.00391 0,24.00391 -3.8086,0 0,-29.16016 z"
             style="fill:#000000"
             id="path5486"
             inkscape:connector-curvature="0" />
          <path
             d="m 223.53766,605.94531 22.24609,0 0,3.32031 -9.12109,0 0,25.83985 -3.96485,0 0,-25.83985 -9.16015,0 0,-3.32031 z"
             style="fill:#000000"
             id="path5488"
             inkscape:connector-curvature="0" />
          <path
             d="m 250.52985,605.94531 17.30468,0 0,3.32031 -13.35937,0 0,8.63282 12.77344,0 0,3.32031 -12.77344,0 0,10.56641 13.73047,0 0,3.32031 -17.67578,0 0,-29.16016 z"
             style="fill:#000000"
             id="path5490"
             inkscape:connector-curvature="0" />
          <path
             d="m 274.94391,605.94531 3.96484,0 0,25.83985 14.08203,0 0,3.32031 -18.04687,0 0,-29.16016 z"
             style="fill:#000000"
             id="path5492"
             inkscape:connector-curvature="0" />
          <path
             d="m 299.00641,605.94531 3.96484,0 0,25.83985 14.08203,0 0,3.32031 -18.04687,0 0,-29.16016 z"
             style="fill:#000000"
             id="path5494"
             inkscape:connector-curvature="0" />
          <path
             d="m 322.79547,605.94531 16.19141,0 0,3.32031 -6.11328,0 0,22.51954 6.11328,0 0,3.32031 -16.19141,0 0,-3.32031 6.11328,0 0,-22.51954 -6.11328,0 0,-3.32031 z"
             style="fill:#000000"
             id="path5496"
             inkscape:connector-curvature="0" />
          <path
             d="m 364.49469,632.70312 q -1.58203,1.46485 -3.57422,2.22657 -1.97266,0.74218 -4.27734,0.74218 -5.54688,0 -8.63282,-3.96484 -3.08593,-3.98437 -3.08593,-11.15234 0,-7.14844 3.125,-11.13282 3.125,-4.0039 8.6914,-4.0039 1.83594,0 3.51563,0.52734 1.67969,0.50781 3.24219,1.5625 l 0,4.04297 q -1.58204,-1.50391 -3.24219,-2.20703 -1.66016,-0.72266 -3.51563,-0.72266 -3.84765,0 -5.78125,2.98828 -1.91406,2.96875 -1.91406,8.94532 0,6.07422 1.85547,9.0039 1.875,2.91016 5.74219,2.91016 1.30859,0 2.28515,-0.29297 0.9961,-0.3125 1.79688,-0.95703 l 0,-7.83203 -4.23828,0 0,-3.24219 8.00781,0 0,12.55859 z"
             style="fill:#000000"
             id="path5498"
             inkscape:connector-curvature="0" />
          <path
             d="m 370.84235,605.94531 17.30468,0 0,3.32031 -13.35937,0 0,8.63282 12.77344,0 0,3.32031 -12.77344,0 0,10.56641 13.73047,0 0,3.32031 -17.67578,0 0,-29.16016 z"
             style="fill:#000000"
             id="path5500"
             inkscape:connector-curvature="0" />
          <path
             d="m 393.77203,605.94531 5,0 9.84375,24.00391 0,-24.00391 3.8086,0 0,29.16016 -5,0 -9.84375,-24.00391 0,24.00391 -3.8086,0 0,-29.16016 z"
             style="fill:#000000"
             id="path5502"
             inkscape:connector-curvature="0" />
          <path
             d="m 436.07672,634.07031 q -1.50391,0.80078 -3.08594,1.19141 -1.58203,0.41015 -3.35937,0.41015 -5.60547,0 -8.71094,-3.96484 -3.08594,-3.96484 -3.08594,-11.15234 0,-7.14844 3.10547,-11.13282 3.125,-4.0039 8.69141,-4.0039 1.77734,0 3.35937,0.41015 1.58203,0.39063 3.08594,1.19141 l 0,4.04297 q -1.44531,-1.19141 -3.10547,-1.81641 -1.66015,-0.625 -3.33984,-0.625 -3.84766,0 -5.76172,2.96875 -1.91406,2.96875 -1.91406,8.96485 0,5.97656 1.91406,8.94531 1.91406,2.96875 5.76172,2.96875 1.71875,0 3.35937,-0.625 1.66016,-0.625 3.08594,-1.81641 l 0,4.04297 z"
             style="fill:#000000"
             id="path5504"
             inkscape:connector-curvature="0" />
          <path
             d="m 443.02985,605.94531 17.30468,0 0,3.32031 -13.35937,0 0,8.63282 12.77344,0 0,3.32031 -12.77344,0 0,10.56641 13.73047,0 0,3.32031 -17.67578,0 0,-29.16016 z"
             style="fill:#000000"
             id="path5506"
             inkscape:connector-curvature="0" />
        </g>
        <rect
           style="fill:#000000;fill-opacity:1;stroke:#ffffff;stroke-width:0;stroke-miterlimit:4;stroke-dasharray:none"
           id="rect5510"
           width="215.13754"
           height="3.9199891"
           x="260.63486"
           y="486.87039"
           transform="translate(0.01971057,0)" />
        <rect
           style="fill:#000000;fill-opacity:1;stroke:#ffffff;stroke-width:0;stroke-miterlimit:4;stroke-dasharray:none"
           id="rect5545"
           width="282.28519"
           height="3.9231915"
           x="230.92435"
           y="561.23273" />
      </g>
    </g>
  </g>
</svg>
